<svg width="298" height="86" fill="none" xmlns="http://www.w3.org/2000/svg"><g clip-path="url(#a)"><path d="M264.94 63.296H32.861v18.857H264.94V63.296Z" fill="#979797"/><path d="M254.492 70.246a64.471 64.471 0 0 1-1.108 3.03l-.393 1.05h3.031l-.393-1.05c-.321-.815-.685-1.835-1.108-3.03h-.029Zm2.215 5.858h-4.386l-1.122 2.944h-2.259l4.605-11.6h1.938l4.605 11.6h-2.244l-1.137-2.944Zm-16.919-3.876c.583 0 1.006-.059 1.297-.175.321-.131.54-.32.685-.554.131-.233.204-.495.204-.787 0-.306-.073-.583-.233-.816-.16-.233-.422-.422-.801-.54a4.481 4.481 0 0 0-.539-.101c-.204-.015-.467-.03-.773-.03h-1.734v3.003h1.894Zm-1.909 1.777v3.265h1.385c.364 0 .685-.015.962-.03.262-.014.495-.058.685-.102.291-.058.539-.145.743-.247a1.61 1.61 0 0 0 .481-.365c.116-.13.204-.291.262-.451.044-.16.073-.335.073-.525 0-.32-.088-.612-.263-.845-.174-.248-.451-.423-.845-.54a3.104 3.104 0 0 0-.597-.116c-.219-.029-.51-.029-.875-.029h-2.011v-.015Zm6.267-3.468c0 .51-.117.962-.336 1.385-.218.422-.597.772-1.122 1.049V73c.292.102.554.219.787.379.233.16.452.335.612.539.175.219.306.452.408.714.102.262.146.568.146.889 0 .277-.044.583-.131.918-.088.32-.248.641-.466.933a3.583 3.583 0 0 1-.904.83c-.379.248-.845.452-1.428.612-.146.03-.306.059-.466.088-.175.029-.365.058-.569.073-.204.014-.437.029-.699.043-.262.015-.539.015-.86.015h-3.381v-11.6h4.037c.86 0 1.559.088 2.084.263.393.13.728.291 1.02.495.291.204.524.437.714.685.189.248.32.51.422.801.088.306.132.583.132.86Zm-16.627-3.075h2.229v11.6h-2.127v-5.333c0-.656.029-1.734.102-3.22h-.03c-.393.67-1.093 1.719-2.083 3.132l-3.789 5.421h-2.23v-11.6h2.128v5.334c0 .845-.029 1.923-.102 3.206h.029c.364-.612 1.049-1.632 2.04-3.06l3.833-5.48Zm-13.932 0v11.6h-2.127v-9.778h-4.955v9.778h-2.127v-11.6h9.209ZM188.45 79.048h-2.127v-9.821h-3.745v-1.778h9.617v1.778h-3.73v9.822h-.015Zm-15.957-1.777h5.713v1.778h-7.84v-11.6h7.519v1.778h-5.392v3.002h4.635v1.777h-4.635v3.265Zm-16.597 1.778v-11.6h2.127v5.275h.029l4.387-5.275h2.637l-4.838 5.741 5.232 5.844h-2.725l-4.693-5.232h-.029v5.232h-2.127v.014Zm-11.775-6.325a7.546 7.546 0 0 0 1.049.058c.569 0 1.05-.043 1.428-.145.394-.088.7-.219.933-.38.233-.16.408-.364.51-.597.102-.233.16-.495.16-.772 0-.335-.072-.641-.233-.889-.16-.248-.422-.437-.816-.583a3.187 3.187 0 0 0-.743-.146 11.32 11.32 0 0 0-1.093-.043h-1.195v3.497Zm1.079 1.836c-.19 0-.379 0-.569-.014-.189 0-.364-.015-.524-.03v4.532h-2.128v-11.6h3.352c.553 0 1.049.03 1.472.074.422.043.786.116 1.122.218.786.248 1.399.627 1.836 1.166.422.525.641 1.21.641 2.026 0 .553-.117 1.064-.35 1.515-.233.452-.568.83-1.02 1.137-.437.32-.991.554-1.632.714-.627.175-1.355.262-2.2.262Zm-13.684-4.313a65.756 65.756 0 0 1-1.107 3.03l-.394 1.05h3.031l-.393-1.05c-.321-.815-.685-1.835-1.108-3.03h-.029Zm2.215 5.858h-4.386l-1.122 2.944h-2.259l4.605-11.6h1.938l4.605 11.6h-2.244l-1.137-2.944Zm-18.594-.16a37.65 37.65 0 0 1 .947-2.944l1.996-5.552h2.988v11.6h-2.128v-5.873c0-.86.029-1.865.102-3.002h-.073c-.102.335-.218.7-.349 1.107-.132.409-.277.817-.423 1.21l-2.39 6.558h-1.37l-2.389-6.558c-.146-.393-.277-.801-.423-1.21-.131-.408-.248-.772-.35-1.107h-.073a44.07 44.07 0 0 1 .102 2.987v5.888h-2.127v-11.6h2.958l1.996 5.523c.336.918.656 1.909.948 2.958h.058v.015Zm-17.75-3.22a7.575 7.575 0 0 0 1.05.058c.568 0 1.05-.044 1.428-.146.394-.088.7-.219.933-.38.233-.16.408-.364.51-.597.102-.233.16-.495.16-.772 0-.335-.073-.641-.233-.889-.16-.248-.423-.437-.816-.583a3.196 3.196 0 0 0-.743-.146 11.32 11.32 0 0 0-1.093-.043h-1.195v3.497Zm1.094 1.835c-.19 0-.38 0-.569-.014-.19 0-.364-.015-.524-.03v4.532H95.26v-11.6h3.352c.554 0 1.05.03 1.472.074.422.043.787.116 1.122.218.787.248 1.399.627 1.836 1.166.422.525.641 1.21.641 2.026 0 .553-.117 1.064-.35 1.515-.233.452-.568.83-1.02 1.137-.437.32-.991.554-1.632.714-.641.175-1.37.262-2.2.262Zm-14.412 2.71h5.712v1.778h-7.84v-11.6h7.52v1.779h-5.392v3.002h4.634v1.777h-4.634v3.265Zm-8.146-9.806v11.599h-2.128v-9.778h-4.954v9.778h-2.128v-11.6h9.21Zm-18.26 8.86a8.294 8.294 0 0 1-.815 1.37 3.59 3.59 0 0 1-.919.903 3.37 3.37 0 0 1-1.092.495 5.358 5.358 0 0 1-1.327.146c-.189 0-.393-.015-.626-.03a4.42 4.42 0 0 1-.656-.101v-1.807c.219.058.423.087.627.116.204.03.393.03.553.03.263 0 .51-.03.715-.088.218-.058.408-.16.597-.306.19-.146.364-.335.54-.583.174-.248.334-.568.51-.947l-4.518-8.088h2.36l3.265 5.931 2.725-5.93h2.302l-4.24 8.889Zm-13.158-7.301c-.583 0-1.108.087-1.603.291a3.37 3.37 0 0 0-1.253.83c-.35.365-.627.817-.816 1.356-.204.54-.292 1.151-.292 1.836s.088 1.283.263 1.807c.174.525.437.947.772 1.297s.743.612 1.224.787c.48.175 1.035.262 1.647.262.437 0 .889-.029 1.34-.102.452-.058.89-.16 1.283-.291v1.807c-.409.116-.846.204-1.312.277-.466.058-.962.102-1.457.102-.977 0-1.85-.146-2.594-.423a5.016 5.016 0 0 1-1.865-1.195 5.141 5.141 0 0 1-1.137-1.836 7.16 7.16 0 0 1-.379-2.36c0-.89.131-1.706.408-2.463a5.554 5.554 0 0 1 1.166-1.968 5.377 5.377 0 0 1 1.894-1.311c.758-.32 1.618-.481 2.58-.481.495 0 .962.029 1.399.102.437.073.83.16 1.18.277v1.792a8.124 8.124 0 0 0-1.297-.291 6.154 6.154 0 0 0-1.151-.102Z" fill="#FFED00"/><path fill-rule="evenodd" clip-rule="evenodd" d="M164.785 37.88v2.61l4.109.057c1.472.015 2.536-.247 2.55-1.238.015-.991-1.02-1.443-2.331-1.443l-4.328.015Zm-.015-20.08-.014 1.865 3.891.03c.947.014 1.719-.263 1.734-.962.014-.7-.875-.918-1.851-.918l-3.76-.015Zm-61.116 5.99a21.586 21.586 0 0 1 2.055-2.624c4.284-4.692 9.865-6.79 16.175-6.79 5.727 0 10.667 2.142 14.645 6.28 3.935 4.11 5.96 9.093 5.96 14.777 0 2.083-.335 4.124-1.748 5.727-.744.845-1.662 1.413-2.667 1.777.35.627.67 1.268.976 1.88.569 1.108 1.195 2.244 1.647 3.395.393.991.67 1.793.554 2.9-.132 1.224-.7 2.172-1.53 3.046-4.299 4.59-10.551 5.945-16.613 5.945-6.251 0-12.051-1.777-16.641-6.105-3.032-2.871-4.94-6.295-5.902-10.084a103.245 103.245 0 0 1-2.784 4.298c-1.777 2.623-3.643 5.217-5.64 7.665-.553.685-1.034 1.297-1.748 1.837-.962.728-1.996 1.049-3.147 1.282-1.603.32-3.367.393-4.999.393-1.53 0-3.089-.058-4.605-.218-1.267-.131-2.404-.481-3.453-1.21-.743-.524-1.268-1.15-1.88-1.807-.947-1.049-1.836-2.2-2.667-3.351a215.996 215.996 0 0 1-3.075-4.372c-1.238-1.807-2.477-3.658-3.599-5.537-.48-.802-.99-1.676-1.413-2.55.014 2.025.058 4.065.102 6.09.058 2.449.102 4.897.116 7.345 0 1.122-.029 1.967-.612 2.987-.728 1.283-1.982 2.026-3.41 2.26-.918.16-1.88.232-2.798.276a67.13 67.13 0 0 1-6.849 0c-.932-.044-1.909-.117-2.827-.277-1.165-.19-2.2-.626-2.972-1.472-.132.19-.277.365-.452.554-1.282 1.355-2.93 1.589-4.678 1.589-6.5 0-12.998-.292-19.498-.35-4.27-.03-8.539-.03-12.809-.263l-.218-.014-.219-.044C1.998 58.603.293 56.723.293 54.216c0-4.007.058-8.014.116-12.022.059-3.964.117-7.942.117-11.92 0-4.197-.131-8.423-.263-12.634C.147 13.749.03 9.844.001 5.938c0-.554-.014-1.107.058-1.661.132-1.137.583-2.171 1.472-2.944C2.421.561 3.484.24 4.635.24c.51 0 1.035.044 1.56.088 3.526.277 6.878.32 10.433-.044.627-.073 1.268-.131 1.91-.087C19.804.27 20.97.75 21.8 1.74c.846 1.02 1.064 2.2.962 3.483-.044.51-.102 1.02-.146 1.545-.35 5.916-.7 11.833-.903 17.763-.175 5.16-.262 10.361-.073 15.52 5.61-.117 11.206-.597 16.817-.641.218 0 .451-.015.67-.015.772 0 1.515.117 2.2.408v-1.268c0-2.972-.029-5.96-.175-8.932-.102-2.23-.262-4.46-.553-6.66-.233-1.763.058-3.512 1.384-4.809.248-.233.495-.437.772-.597-1.37-1.662-2.185-3.774-2.185-6.252 0-6.076 5.216-10.098 11.016-10.098 6.79 0 11.847 5.29 10.77 12.167a9.176 9.176 0 0 1-1.939 4.358c.102.072.204.16.32.247.117.102.234.204.336.306.044-.043.087-.087.13-.145.992-1.006 2.289-1.385 3.673-1.385 3.6 0 7.184.204 10.784.219 1.21 0 2.23.175 3.235.933 1.267.961 1.778 2.375 1.778 3.92 0 1.894-.103 3.788-.175 5.683-.088 2.113-.102 4.182.073 6.295.102.335.305.758.437 1.064.32.685.67 1.355 1.049 2.01.35-.611.685-1.252.976-1.894.131-.277.292-.626.408-.947.03-2.259.015-4.503-.029-6.761-.029-1.793-.087-3.57-.117-5.363-.029-1.399.336-2.71 1.385-3.701.947-.89 2.113-1.224 3.38-1.24 3.425-.014 6.835-.218 10.245-.218 2.302 0 4.124 1.443 4.765 3.629.364 1.005.496 2.288.583 3.424Zm87.725 24.772c-1.311 2.769-3.249 5.144-5.96 6.951-5.552 3.687-12.882 3.935-19.337 3.964h-1.618a273.143 273.143 0 0 1-9.137-.219c-2.433-.087-4.852-.204-7.286-.262-1.603-.044-3.06-.291-4.226-1.545-1.267-1.37-1.282-2.914-1.238-4.634.087-3.614.247-7.227.451-10.841.263-4.518.365-9.035.336-13.567-.015-4.663-.161-9.327-.336-13.975a644.267 644.267 0 0 0-.335-7.476c-.029-.626-.102-1.268-.116-1.894-.044-1.282.233-2.448 1.122-3.44.889-.99 2.025-1.384 3.308-1.471.655-.044 1.311-.03 1.967-.044 7.403-.116 14.849-.204 22.252.088 5.275.204 11.046 1.005 15.33 4.371 3.497 2.74 5.261 6.587 5.829 10.944.627 4.78-1.02 8.598-3.672 12.095a14.84 14.84 0 0 1 1.369 1.662c.948-2.93 2.463-5.655 4.664-8.074 4.284-4.692 9.865-6.79 16.175-6.79 5.727 0 10.667 2.142 14.645 6.28a21.628 21.628 0 0 1 3.629 5.013 21.79 21.79 0 0 1 3.176-4.503c4.285-4.692 9.866-6.79 16.176-6.79 5.727 0 10.667 2.142 14.645 6.28.524.554 1.02 1.123 1.486 1.705-.087-1.253.204-2.462 1.079-3.453.932-1.05 2.083-1.428 3.424-1.589 3.191-.378 6.339-.99 9.501-1.617 1.793-.35 3.527-.466 5.057.772.495.408.86.875 1.122 1.384 2.259-1.049 4.678-1.69 7.213-1.69 1.763 0 3.395.233 4.62 1.661 1.063 1.239 1.194 2.638 1.092 4.168-.043.729-.131 1.457-.204 2.186-.102.874-.204 1.792-.233 2.681 0 .874.015 1.764.029 2.638.03.976.073 1.982.073 2.958 0 3.09-2.258 5.159-5.304 5.159-.758 0-1.53-.059-2.288-.117a22.676 22.676 0 0 0-1.734-.073c-.321 0-.962.015-1.443.088a9.27 9.27 0 0 0-.058 1.005c0 1.574.015 3.148.044 4.721.029 1.618.044 3.236.044 4.853 0 .976.072 1.982.131 2.944.073 1.122.145 2.258.145 3.366 0 .889-.233 1.749-.714 2.506-.874 1.37-2.317 2.055-3.89 2.186-1.866.16-3.833.16-5.713.16-1.967 0-4.022-.029-5.974-.247-2.551-.292-4.416-2.128-4.518-4.693-4.284 4.445-10.448 5.771-16.437 5.771-6.252 0-12.052-1.778-16.642-6.106a20.542 20.542 0 0 1-2.827-3.279c0 .132-.015.263-.029.394-.131 1.224-.7 2.171-1.53 3.046-4.299 4.59-10.551 5.945-16.613 5.945-6.251 0-12.051-1.778-16.641-6.106-1.691-1.646-3.061-3.468-4.081-5.45Z" fill="#979797"/><path d="M166.053 55.746c-6.703.03-13.64-.378-17.91-.48-1.879-.044-1.894-.277-1.836-2.361.073-2.58.19-6.15.437-10.725.54-9.647.365-18.23 0-27.906-.072-1.793-.16-4.11-.335-7.52-.16-3.191-.597-2.885 2.623-2.943 5.115-.073 14.296-.219 22.048.073 8.496.335 16.336 2.273 17.604 12.066.612 4.663-1.618 8.16-5.203 12.007 5.246 3.556 7.112 9.4 5.844 15.111-2.652 11.892-12.97 12.65-23.272 12.678Zm-4.984-41.56-.044 9.02c4.241.088 13.086 1.589 13.013-4.721-.058-5.625-8.816-4.284-12.969-4.299Zm0 20.08v9.706c5.785.262 13.713 1.807 14.091-4.444.394-6.879-8.204-5.247-14.091-5.261Zm-22.296 1.167c0 2.768-.699 4.065-3.395 4.313l-19.512 1.792c.728 3.498 4.794 4.736 7.942 4.736 2.987 0 5.26-.99 7.781-2.462 2.128-1.253 2.23-1.079 4.168 2.725.67 1.311 1.209 2.317 1.501 3.075.393 1.005.525 1.224-.233 2.04-2.973 3.176-7.607 4.765-13.888 4.765-5.814 0-10.521-1.705-14.077-5.1-3.672-3.44-5.493-8.044-5.493-13.815 0-5.625 1.646-10.23 4.925-13.815 3.381-3.716 7.855-5.566 13.436-5.566 4.692 0 8.67 1.72 11.949 5.13 3.25 3.394 4.896 7.46 4.896 12.182Zm-18.302-7.942c-3.745 0-5.48 3.73-5.144 7.067l10.579-.86c-.204-3.278-1.734-6.207-5.435-6.207Zm107.325 7.942c0 2.768-.7 4.065-3.396 4.313l-19.512 1.792c.729 3.498 4.794 4.736 7.942 4.736 2.987 0 5.261-.99 7.782-2.462 2.127-1.253 2.229-1.079 4.167 2.725.671 1.311 1.21 2.317 1.501 3.075.394 1.005.525 1.224-.233 2.04-2.973 3.176-7.607 4.765-13.887 4.765-5.815 0-10.522-1.705-14.077-5.1-3.672-3.44-5.494-8.044-5.494-13.815 0-5.625 1.647-10.23 4.925-13.815 3.381-3.716 7.855-5.566 13.436-5.566 4.692 0 8.671 1.72 11.949 5.13 3.265 3.394 4.897 7.46 4.897 12.182Zm-18.303-7.942c-3.745 0-5.479 3.73-5.144 7.067l10.579-.86c-.189-3.278-1.719-6.207-5.435-6.207Zm55.928 7.942c0 2.768-.699 4.065-3.395 4.313l-19.512 1.792c.728 3.498 4.794 4.736 7.942 4.736 2.987 0 5.26-.99 7.781-2.462 2.128-1.253 2.23-1.079 4.168 2.725.67 1.311 1.209 2.317 1.501 3.075.393 1.005.525 1.224-.233 2.04-2.973 3.176-7.607 4.765-13.888 4.765-5.814 0-10.521-1.705-14.077-5.1-3.672-3.44-5.493-8.044-5.493-13.815 0-5.625 1.646-10.23 4.925-13.815 3.381-3.716 7.855-5.566 13.436-5.566 4.692 0 8.67 1.72 11.949 5.13 3.264 3.394 4.896 7.46 4.896 12.182Zm-18.302-7.942c-3.745 0-5.48 3.73-5.144 7.067l10.579-.86c-.189-3.278-1.719-6.207-5.435-6.207Zm46.616 4.983c0 .962-.524 1.443-1.573 1.443-.467 0-1.137-.044-2.026-.102a33.588 33.588 0 0 0-1.996-.087c-2.011 0-3.396.306-4.124.947-.743.641-1.108 1.923-1.108 3.861 0 1.05.015 2.653.044 4.795.044 2.142.044 3.745.044 4.794 0 .714.043 1.763.131 3.177.087 1.399.131 2.448.131 3.148 0 .582-.394.918-1.21.99-1.165.102-2.972.146-5.377.146-2.317 0-4.167-.073-5.552-.218-.816-.102-1.209-.496-1.209-1.21 0-1.953.014-4.882.043-8.773.03-3.905.044-6.834.044-8.787 0-5.741-.524-10.477-1.574-14.178-.204-1.108.233-1.254 1.195-1.37 3.381-.408 6.456-1.006 9.778-1.662 1.793-.35 2.186-.247 2.361.962.102.743.204 1.88.321 3.585.262-.233.888-.801 3.235-2.084 2.346-1.282 4.59-1.909 6.761-1.909 1.924 0 2.113.248 2.011 1.866a34.976 34.976 0 0 1-.189 2.01c-.146 1.4-.233 2.405-.263 3.002 0 .714.015 1.647.044 2.827.029 1.414.058 2.361.058 2.828ZM37.175 55.951c-6.484 0-12.984-.292-19.468-.35-4.212-.03-8.467-.03-12.635-.263-.714-.13-1.063-.495-1.063-1.136 0-2.667.043-6.645.116-11.964.073-5.319.117-9.312.117-11.964 0-2.842-.088-7.082-.262-12.736a537.15 537.15 0 0 1-.263-11.614c-.014-2.157.044-2.011 2.2-1.866 3.862.277 7.214.336 11.12-.087 2.608-.277 2.025.058 1.88 2.55-.657 11.25-1.458 24.19-.904 35.498.116 2.288.451 1.778 2.74 1.749 5.916-.087 11.832-.612 17.748-.67.714 0 1.851-.19 1.851.83 0 3.556-.219 6.704-.656 9.429-.35 2.185-.13 2.593-2.52 2.593Zm21.538-43.207c-1.136 7.17-14.383 6.615-14.383-1.472 0-4.008 3.57-6.383 7.301-6.383 4.46-.014 7.81 3.22 7.082 7.855Zm-.874 25.778c0 1.792.044 4.46.116 7.986.073 3.118.102 5.552.117 7.286 0 .787.116 1.413-.918 1.559-2.244.408-8.991.408-11.235 0-1.166-.19-1.064-.554-1.064-1.574 0-1.676.044-4.211.116-7.607.073-3.38.117-5.93.117-7.65 0-6.936-.219-11.978-.758-16.088-.204-1.5.263-2.07 1.632-1.909 3.556.423 7.14.423 10.711.117 1.501-.131 2.23-.175 1.967 1.676-.568 4.765-.801 9.909-.801 16.204Zm41.954-1.224c-.569 1.734-2.26 4.678-5.057 8.83-2.07 3.032-3.876 5.495-5.436 7.389-.947 1.166-1.122 1.5-2.74 1.821-2.287.452-6.163.38-8.495.132-1.617-.175-1.967-.729-2.958-1.822-1.443-1.603-3.206-4.095-5.436-7.33-2.9-4.226-4.648-7.126-5.202-8.7-1.384-3.788-.845-11.628-.845-16.015 0-.903.335-1.18 1.282-1.18 3.585 0 7.184.204 10.77.219.86 0 1.31.029 1.31 1.122 0 4.372-.495 7.898-.058 12.474.117 1.267 2.58 5.974 4.241 7.694.83.86 1.18.83 1.982-.044 1.588-1.72 3.934-6.222 4.08-7.432.073-5.29-.044-7.985-.131-12.678-.015-.918.233-1.136 1.064-1.136 3.453-.015 6.892-.219 10.244-.219.612 0 1.02.32 1.195.962.641 2.302.918 13.8.19 15.913Z" fill="#FFED00"/></g><defs><clipPath id="a"><path fill="#fff" d="M0 0h297.815v86H0z"/></clipPath></defs></svg>