<svg width="21" height="13" fill="none" xmlns="http://www.w3.org/2000/svg"><path fill-rule="evenodd" clip-rule="evenodd" d="M10.3523 12.0508h1.2345s.3729-.041.5633-.2462c.1752-.1884.1696-.5422.1696-.5422s-.0241-1.65644.7446-1.90036c.7579-.24027 1.731 1.60086 2.7625 2.30886.78.5358 1.3727.4183 1.3727.4183l2.758-.0384s1.4427-.0889.7586-1.2233c-.056-.0928-.3984-.83912-2.0506-2.37273-1.7293-1.6051-1.4977-1.34548.5854-4.12196 1.2687-1.69089 1.7759-2.72321 1.6175-3.16534-.1511-.421116-1.0842-.30981-1.0842-.30981l-3.1054.019345s-.2301-.031401-.4009.070652c-.1668.100093-.2742.333363-.2742.333363s-.4915 1.30847-1.147 2.42125c-1.3827 2.34807-1.9356 2.472-2.1616 2.32621-.5257-.33981-.3945-1.36511-.3945-2.09351 0-2.27546.3452-3.224222-.672-3.469824-.3376-.081587-.586-.135417-1.4492-.144109C9.07135.309542 8.13352.324401 7.6025.584582c-.35326.172987-.62578.558488-.4598.580638.20523.02748.67008.12533.91652.46093.31822.43288.307 1.4052.307 1.4052s.1828 2.67863-.427 3.01142c-.41859.22822-.99278-.23775-2.22556-2.36798C5.082 2.5836 4.60509 1.37746 4.60509 1.37746s-.09196-.22541-.25597-.34597C4.15005.885416 3.87193.838876 3.87193.838876L.92106.85822s-.44298.012337-.605594.20495c-.144669.1713-.011495.52569-.011495.52569S2.6142 6.99378 5.23003 9.71755c2.39855 2.49725 5.12227 2.33325 5.12227 2.33325Z" fill="#000"/></svg>